<svg width="725" height="640" viewBox="0 0 725 640" fill="none" xmlns="http://www.w3.org/2000/svg">
<path d="M2.71736 25.9158C-5.24763 125.878 3.40751 178.514 40.5649 266.764L197.116 101.611L40.5649 5.27174C16.2366 -5.11363 7.67929 -1.11573 2.71736 25.9158Z" fill="#D95B2B"/>
<path d="M721.388 26.0265C729.353 125.988 720.698 178.625 683.541 266.875L526.99 101.722L683.541 5.38243C707.869 -5.00294 716.426 -1.00504 721.388 26.0265Z" fill="#D95B2B"/>
<path d="M724.105 359.733C724.105 538.355 543.615 639.733 361.193 639.733C178.77 639.733 4.10544 538.355 4.10544 359.733C4.10544 181.111 149.59 24.8396 361.193 24.8395C572.795 24.8394 724.105 181.111 724.105 359.733Z" fill="#F5D1B7"/>
<path d="M206.105 214.733C206.105 214.733 191.478 200.715 182.105 191.733" stroke="#51330D" stroke-width="10" stroke-linecap="round"/>
<path d="M222.105 191.733L202.355 167.046L202.105 166.733" stroke="#51330D" stroke-width="10" stroke-linecap="round"/>
<path d="M244.209 178.382L233.887 150.857" stroke="#51330D" stroke-width="10" stroke-linecap="round"/>
<path d="M268.294 171.501V143.975" stroke="#51330D" stroke-width="10" stroke-linecap="round"/>
<path d="M294.3 178.019L300.78 149.5" stroke="#51330D" stroke-width="10" stroke-linecap="round"/>
<path d="M425.484 180.623L413.884 153.776" stroke="#51330D" stroke-width="10" stroke-linecap="round"/>
<path d="M450.65 173.221V143.975" stroke="#51330D" stroke-width="10" stroke-linecap="round"/>
<path d="M474.735 176.662L481.617 152.577" stroke="#51330D" stroke-width="10" stroke-linecap="round"/>
<path d="M497.281 186.058L510.681 167.266" stroke="#51330D" stroke-width="10" stroke-linecap="round"/>
<path d="M514.088 211.002L533.441 193.932" stroke="#51330D" stroke-width="10" stroke-linecap="round"/>
<circle cx="268.294" cy="240.315" r="68.8137" fill="white"/>
<circle cx="268.294" cy="240.314" r="44.7289" fill="#D95B2B"/>
<circle cx="283.218" cy="232.272" r="22.3645" fill="#FFFEFF"/>
<circle cx="454.091" cy="240.315" r="68.8137" fill="white"/>
<circle cx="454.091" cy="240.314" r="44.7289" fill="#D95B2B"/>
<circle cx="469.015" cy="232.272" r="22.3645" fill="#FFFEFF"/>
<path d="M361.192 387.103C361.192 387.103 275.174 320.01 361.192 320.01C447.21 320.01 361.192 387.103 361.192 387.103Z" fill="#51330D"/>
<path d="M361.192 387.103C361.192 387.103 275.174 320.01 361.192 320.01C447.21 320.01 361.192 387.103 361.192 387.103ZM361.192 387.103C361.192 450.756 325.979 474.858 297.54 440.434M361.192 387.103C361.192 435.272 393.879 480.001 426.566 440.434" stroke="#51330D" stroke-width="10" stroke-linecap="round"/>
</svg>
